<svg xmlns="http://www.w3.org/2000/svg" width="1000" height="800" viewBox="0 0 1000 800"><rect x="0" y="0" width="1000" height="800" rx="0" fill="#F4F1EA"/><rect x="0.75" y="0.75" width="998.5" height="798.5" rx="0" fill="none" stroke="#D6D0C2" stroke-width="1.5"/><text x="46" y="32" font-family="DejaVu Sans Mono,Liberation Mono,monospace" font-size="13" font-weight="500" fill="#B0821F" letter-spacing="2.6" style="">THE QUESTION BEHIND “ARE YOU STILL HANDS-ON?”</text><text x="46" y="68" font-family="Liberation Sans,DejaVu Sans,Helvetica,sans-serif" font-size="30" font-weight="700" fill="#14181F" style="">Moving vertically — and coming back up</text><text x="46" y="96" font-family="Charter,Bitstream Charter,Liberation Serif,Georgia,serif" font-size="16.5" font-weight="400" fill="#48505C" style="">Anyone can name the layers. The test is whether you can travel through them in both directions.</text><line x1="46" y1="116" x2="954" y2="116" stroke="#D6D0C2" stroke-width="1.2" stroke-linecap="butt"/><text x="200" y="150" font-family="DejaVu Sans Mono,Liberation Mono,monospace" font-size="12.5" font-weight="500" fill="#2C5570" text-anchor="middle" letter-spacing="1.4" style="">DESCENT — narrowing to evidence</text><rect x="69.0" y="176" width="262" height="34" rx="4" fill="#FCFAF5" stroke="#D6D0C2" stroke-width="1.1"/><rect x="69.0" y="176" width="3" height="34" rx="0" fill="#2C5570"/><text x="200" y="198" font-family="Liberation Sans,DejaVu Sans,Helvetica,sans-serif" font-size="15.5" font-weight="600" fill="#14181F" text-anchor="middle" style="">Architecture</text><line x1="200" y1="212" x2="200" y2="219" stroke="#5B87A6" stroke-width="1.5" stroke-linecap="round"/><path d="M 195.5 219 L 204.5 219 L 200 226 Z" fill="#5B87A6"/><rect x="69.0" y="228" width="262" height="34" rx="4" fill="#FCFAF5" stroke="#D6D0C2" stroke-width="1.1"/><rect x="69.0" y="228" width="3" height="34" rx="0" fill="#2C5570"/><text x="200" y="250" font-family="Liberation Sans,DejaVu Sans,Helvetica,sans-serif" font-size="15.5" font-weight="600" fill="#14181F" text-anchor="middle" style="">Application</text><line x1="200" y1="264" x2="200" y2="271" stroke="#5B87A6" stroke-width="1.5" stroke-linecap="round"/><path d="M 195.5 271 L 204.5 271 L 200 278 Z" fill="#5B87A6"/><rect x="69.0" y="280" width="262" height="34" rx="4" fill="#FCFAF5" stroke="#D6D0C2" stroke-width="1.1"/><rect x="69.0" y="280" width="3" height="34" rx="0" fill="#2C5570"/><text x="200" y="302" font-family="Liberation Sans,DejaVu Sans,Helvetica,sans-serif" font-size="15.5" font-weight="600" fill="#14181F" text-anchor="middle" style="">Spark plan</text><line x1="200" y1="316" x2="200" y2="323" stroke="#5B87A6" stroke-width="1.5" stroke-linecap="round"/><path d="M 195.5 323 L 204.5 323 L 200 330 Z" fill="#5B87A6"/><rect x="69.0" y="332" width="262" height="34" rx="4" fill="#FCFAF5" stroke="#D6D0C2" stroke-width="1.1"/><rect x="69.0" y="332" width="3" height="34" rx="0" fill="#2C5570"/><text x="200" y="354" font-family="Liberation Sans,DejaVu Sans,Helvetica,sans-serif" font-size="15.5" font-weight="600" fill="#14181F" text-anchor="middle" style="">Stage</text><line x1="200" y1="368" x2="200" y2="375" stroke="#5B87A6" stroke-width="1.5" stroke-linecap="round"/><path d="M 195.5 375 L 204.5 375 L 200 382 Z" fill="#5B87A6"/><rect x="69.0" y="384" width="262" height="34" rx="4" fill="#FCFAF5" stroke="#D6D0C2" stroke-width="1.1"/><rect x="69.0" y="384" width="3" height="34" rx="0" fill="#2C5570"/><text x="200" y="406" font-family="Liberation Sans,DejaVu Sans,Helvetica,sans-serif" font-size="15.5" font-weight="600" fill="#14181F" text-anchor="middle" style="">Task</text><line x1="200" y1="420" x2="200" y2="427" stroke="#5B87A6" stroke-width="1.5" stroke-linecap="round"/><path d="M 195.5 427 L 204.5 427 L 200 434 Z" fill="#5B87A6"/><rect x="69.0" y="436" width="262" height="34" rx="4" fill="#FCFAF5" stroke="#D6D0C2" stroke-width="1.1"/><rect x="69.0" y="436" width="3" height="34" rx="0" fill="#2C5570"/><text x="200" y="458" font-family="Liberation Sans,DejaVu Sans,Helvetica,sans-serif" font-size="15.5" font-weight="600" fill="#14181F" text-anchor="middle" style="">Partition</text><line x1="200" y1="472" x2="200" y2="479" stroke="#5B87A6" stroke-width="1.5" stroke-linecap="round"/><path d="M 195.5 479 L 204.5 479 L 200 486 Z" fill="#5B87A6"/><rect x="69.0" y="488" width="262" height="34" rx="4" fill="#FCFAF5" stroke="#D6D0C2" stroke-width="1.1"/><rect x="69.0" y="488" width="3" height="34" rx="0" fill="#2C5570"/><text x="200" y="510" font-family="Liberation Sans,DejaVu Sans,Helvetica,sans-serif" font-size="15.5" font-weight="600" fill="#14181F" text-anchor="middle" style="">JVM</text><line x1="200" y1="524" x2="200" y2="531" stroke="#5B87A6" stroke-width="1.5" stroke-linecap="round"/><path d="M 195.5 531 L 204.5 531 L 200 538 Z" fill="#5B87A6"/><rect x="69.0" y="540" width="262" height="34" rx="4" fill="#FCFAF5" stroke="#D6D0C2" stroke-width="1.1"/><rect x="69.0" y="540" width="3" height="34" rx="0" fill="#2C5570"/><text x="200" y="562" font-family="Liberation Sans,DejaVu Sans,Helvetica,sans-serif" font-size="15.5" font-weight="600" fill="#14181F" text-anchor="middle" style="">Code</text><text x="800" y="150" font-family="DejaVu Sans Mono,Liberation Mono,monospace" font-size="12.5" font-weight="500" fill="#2E6B4E" text-anchor="middle" letter-spacing="1.4" style="">ASCENT — widening to leverage</text><rect x="669.0" y="382" width="262" height="40" rx="4" fill="#FCFAF5" stroke="#D6D0C2" stroke-width="1.1"/><rect x="669.0" y="382" width="3" height="40" rx="0" fill="#2E6B4E"/><text x="800" y="408" font-family="Liberation Sans,DejaVu Sans,Helvetica,sans-serif" font-size="15.5" font-weight="600" fill="#14181F" text-anchor="middle" style="">Root cause</text><rect x="669.0" y="316" width="262" height="40" rx="4" fill="#FCFAF5" stroke="#D6D0C2" stroke-width="1.1"/><rect x="669.0" y="316" width="3" height="40" rx="0" fill="#2E6B4E"/><text x="800" y="342" font-family="Liberation Sans,DejaVu Sans,Helvetica,sans-serif" font-size="15.5" font-weight="600" fill="#14181F" text-anchor="middle" style="">Architecture improvement</text><rect x="669.0" y="250" width="262" height="40" rx="4" fill="#FCFAF5" stroke="#D6D0C2" stroke-width="1.1"/><rect x="669.0" y="250" width="3" height="40" rx="0" fill="#2E6B4E"/><text x="800" y="276" font-family="Liberation Sans,DejaVu Sans,Helvetica,sans-serif" font-size="15.5" font-weight="600" fill="#14181F" text-anchor="middle" style="">Automation</text><rect x="669.0" y="184" width="262" height="40" rx="4" fill="#FCFAF5" stroke="#D6D0C2" stroke-width="1.1"/><rect x="669.0" y="184" width="3" height="40" rx="0" fill="#2E6B4E"/><text x="800" y="210" font-family="Liberation Sans,DejaVu Sans,Helvetica,sans-serif" font-size="15.5" font-weight="600" fill="#14181F" text-anchor="middle" style="">Product improvement</text><line x1="800" y1="378" x2="800" y2="366" stroke="#5FA37D" stroke-width="1.5" stroke-linecap="round"/><path d="M 795.5 366 L 804.5 366 L 800 358 Z" fill="#5FA37D"/><line x1="800" y1="312" x2="800" y2="300" stroke="#5FA37D" stroke-width="1.5" stroke-linecap="round"/><path d="M 795.5 300 L 804.5 300 L 800 292 Z" fill="#5FA37D"/><line x1="800" y1="246" x2="800" y2="234" stroke="#5FA37D" stroke-width="1.5" stroke-linecap="round"/><path d="M 795.5 234 L 804.5 234 L 800 226 Z" fill="#5FA37D"/><path d="M 200 582 L 200 634 Q 200 656 240 656 L 760 656 Q 800 656 800 634 L 800 434" fill="none" stroke="#B0821F" stroke-width="2" stroke-linecap="round" stroke-linejoin="round" stroke-dasharray="7 6"/><path d="M 795 434 L 805 434 L 800 424 Z" fill="#B0821F"/><rect x="332.0" y="642" width="336" height="28" rx="0" fill="#F4F1EA"/><text x="500.0" y="662" font-family="Charter,Bitstream Charter,Liberation Serif,Georgia,serif" font-size="15" font-weight="400" fill="#B0821F" text-anchor="middle" style="font-style:italic">the same person, walking back up</text><line x1="46" y1="738" x2="954" y2="738" stroke="#E7E2D6" stroke-width="1" stroke-linecap="butt"/><text x="500.0" y="768" font-family="Charter,Bitstream Charter,Liberation Serif,Georgia,serif" font-size="17.5" font-weight="400" fill="#48505C" text-anchor="middle" style="font-style:italic">“An architect who cannot read a task log is quoting other people’s work.”</text></svg>