<svg width="1100" height="540" viewBox="0 0 1100 540" xmlns="http://www.w3.org/2000/svg" font-family="'Segoe UI','Roboto',Arial,sans-serif">
  <defs>
    <linearGradient id="clicksGrad" x1="0" y1="1" x2="0" y2="0">
      <stop offset="0%" stop-color="#4285F4" stop-opacity="0.12"/>
      <stop offset="100%" stop-color="#4285F4" stop-opacity="0"/>
    </linearGradient>
    <linearGradient id="impressGrad" x1="0" y1="1" x2="0" y2="0">
      <stop offset="0%" stop-color="#5C3FBF" stop-opacity="0.10"/>
      <stop offset="100%" stop-color="#5C3FBF" stop-opacity="0"/>
    </linearGradient>
    <filter id="shadow" x="-3%" y="-3%" width="106%" height="110%">
      <feDropShadow dx="0" dy="2" stdDeviation="6" flood-color="#000" flood-opacity="0.08"/>
    </filter>
    <filter id="glow-blue">
      <feDropShadow dx="0" dy="0" stdDeviation="4" flood-color="#4285F4" flood-opacity="0.5"/>
    </filter>
    <filter id="glow-purple">
      <feDropShadow dx="0" dy="0" stdDeviation="4" flood-color="#5C3FBF" flood-opacity="0.5"/>
    </filter>
    <filter id="card-hover">
      <feDropShadow dx="0" dy="4" stdDeviation="8" flood-color="#000" flood-opacity="0.12"/>
    </filter>
    <clipPath id="chartClip"><rect x="85" y="225" width="870" height="200"/></clipPath>
  </defs>

  <style>
    /* Line draw animation */
    @keyframes drawLine {
      from { stroke-dashoffset: 1600; }
      to   { stroke-dashoffset: 0; }
    }
    @keyframes fillFade {
      from { opacity: 0; }
      to   { opacity: 1; }
    }
    @keyframes countUp {
      from { opacity: 0; transform: translateY(8px); }
      to   { opacity: 1; transform: translateY(0); }
    }
    @keyframes pulsePoint {
      0%, 100% { r: 4; opacity: 1; }
      50%      { r: 7; opacity: 0.6; }
    }
    @keyframes dotAppear {
      from { r: 0; opacity: 0; }
      to   { r: 4; opacity: 1; }
    }
    @keyframes cardSlide {
      from { opacity: 0; transform: translateY(12px); }
      to   { opacity: 1; transform: translateY(0); }
    }
    @keyframes calloutPop {
      from { opacity: 0; transform: scale(0.85); }
      to   { opacity: 1; transform: scale(1); }
    }
    @keyframes scanline {
      from { transform: translateX(-100%); }
      to   { transform: translateX(1100px); }
    }

    /* Card hover effects */
    .metric-card { transition: transform 0.2s ease, filter 0.2s ease; cursor: pointer; }
    .metric-card:hover { transform: translateY(-3px); filter: url(#card-hover); }

    /* Animated line drawing */
    .line-clicks {
      stroke-dasharray: 1600;
      animation: drawLine 2s ease-out 0.5s both;
    }
    .line-impress {
      stroke-dasharray: 1600;
      animation: drawLine 2s ease-out 0.3s both;
    }
    .area-clicks  { animation: fillFade 1s ease-out 1.8s both; }
    .area-impress { animation: fillFade 1s ease-out 1.6s both; }

    /* Metric value count-up */
    .val-clicks  { animation: countUp 0.6s ease-out 0.2s both; }
    .val-impress { animation: countUp 0.6s ease-out 0.35s both; }
    .val-ctr     { animation: countUp 0.6s ease-out 0.5s both; }
    .val-pos     { animation: countUp 0.6s ease-out 0.65s both; }

    /* Card slide-in */
    .card-1 { animation: cardSlide 0.5s ease-out 0.1s both; }
    .card-2 { animation: cardSlide 0.5s ease-out 0.2s both; }
    .card-3 { animation: cardSlide 0.5s ease-out 0.3s both; }
    .card-4 { animation: cardSlide 0.5s ease-out 0.4s both; }

    /* Pulsing latest data points */
    .pulse-dot { animation: pulsePoint 2s ease-in-out infinite 2.5s; }

    /* Data dots appear sequentially */
    .data-dot { animation: dotAppear 0.3s ease-out both; opacity: 0; }
    .dd1  { animation-delay: 0.7s; }
    .dd2  { animation-delay: 0.8s; }
    .dd3  { animation-delay: 0.9s; }
    .dd4  { animation-delay: 1.0s; }
    .dd5  { animation-delay: 1.1s; }
    .dd6  { animation-delay: 1.2s; }
    .dd7  { animation-delay: 1.3s; }
    .dd8  { animation-delay: 1.4s; }
    .dd9  { animation-delay: 1.5s; }
    .dd10 { animation-delay: 1.6s; }
    .dd11 { animation-delay: 1.7s; }
    .dd12 { animation-delay: 1.8s; }
    .dd13 { animation-delay: 1.9s; }

    /* Hover data dots */
    .data-dot { transition: r 0.15s ease; }
    .data-dot:hover { r: 7; }

    /* Callout pop-in */
    .callout { animation: calloutPop 0.4s ease-out 2.8s both; transform-origin: center center; }

    /* Tooltip groups - hidden by default, shown on hover */
    .tooltip-group { opacity: 0; transition: opacity 0.2s ease; pointer-events: none; }
    .hover-zone:hover + .tooltip-group,
    .hover-zone:hover ~ .tooltip-group { opacity: 1; }

    /* Vertical hover line */
    .vline { opacity: 0; transition: opacity 0.15s ease; }
    .hover-col:hover .vline { opacity: 1; }

    /* Tab hover */
    .tab-item { cursor: pointer; transition: opacity 0.2s ease; }
    .tab-item:hover rect { fill: #E8F0FE; }
    .tab-item:hover text { fill: #1A73E8; }

    /* Filter pill hover */
    .pill-inactive { cursor: pointer; transition: all 0.15s ease; }
    .pill-inactive:hover rect { fill: #F1F3F4; stroke: #9AA0A6; }

    /* Scanline effect on chart */
    .scanline {
      animation: scanline 3s linear 2s both;
      opacity: 0.07;
    }

    /* Trend arrow bounce */
    @keyframes arrowBounce {
      0%, 100% { transform: translateY(0); }
      50%      { transform: translateY(-3px); }
    }
    .trend-arrow { animation: arrowBounce 1.5s ease-in-out infinite 2.5s; }
  </style>

  <!-- Background -->
  <rect width="1100" height="540" rx="12" fill="#F8F9FA"/>

  <!-- Top bar -->
  <rect x="0" y="0" width="1100" height="56" rx="12" fill="white"/>
  <rect x="0" y="40" width="1100" height="16" fill="white"/>
  <line x1="0" y1="56" x2="1100" y2="56" stroke="#DADCE0" stroke-width="1"/>

  <!-- Google Search Console branding -->
  <g>
    <rect x="22" y="18" width="20" height="20" rx="4" fill="#4285F4"/>
    <path d="M28,25 L32,30 L36,24" stroke="white" stroke-width="2" fill="none" stroke-linecap="round" stroke-linejoin="round"/>
    <text x="52" y="33" font-size="15" font-weight="500" fill="#3C4043">Google Search Console</text>
    <line x1="270" y1="20" x2="270" y2="38" stroke="#E8EAED" stroke-width="1"/>
    <text x="285" y="34" font-size="14" font-weight="400" fill="#3C4043">Performance</text>
  </g>

  <!-- Date filter pills -->
  <rect x="40" y="72" width="80" height="30" rx="15" fill="#E8F0FE" stroke="#4285F4" stroke-width="1.2"/>
  <text x="58" y="91" font-size="11" fill="#1A73E8" font-weight="500">28 days</text>
  <g class="pill-inactive">
    <rect x="130" y="72" width="76" height="30" rx="15" fill="white" stroke="#DADCE0" stroke-width="1"/>
    <text x="145" y="91" font-size="11" fill="#5F6368">3 months</text>
  </g>
  <g class="pill-inactive">
    <rect x="216" y="72" width="62" height="30" rx="15" fill="white" stroke="#DADCE0" stroke-width="1"/>
    <text x="230" y="91" font-size="11" fill="#5F6368">6 months</text>
  </g>
  <g class="pill-inactive">
    <rect x="288" y="72" width="66" height="30" rx="15" fill="white" stroke="#DADCE0" stroke-width="1"/>
    <text x="302" y="91" font-size="11" fill="#5F6368">12 months</text>
  </g>

  <text x="760" y="91" font-size="11" fill="#5F6368">Search type: </text>
  <text x="822" y="91" font-size="11" fill="#3C4043" font-weight="500">Web</text>
  <text x="940" y="91" font-size="10" fill="#9AA0A6">Last update: 3.5 hours ago</text>

  <!-- ═══ METRIC CARDS ═══ -->
  <!-- Clicks -->
  <g class="metric-card card-1">
    <rect x="40" y="118" width="240" height="76" rx="10" fill="#4285F4"/>
    <text x="58" y="143" font-size="12" fill="rgba(255,255,255,0.8)">☑ Total clicks</text>
    <text x="58" y="176" font-size="28" font-weight="600" fill="white" class="val-clicks">14.2K</text>
    <g class="trend-arrow">
      <text x="170" y="176" font-size="12" fill="rgba(255,255,255,0.9)">▲ 23%</text>
    </g>
  </g>

  <!-- Impressions -->
  <g class="metric-card card-2">
    <rect x="295" y="118" width="240" height="76" rx="10" fill="#5C3FBF"/>
    <text x="313" y="143" font-size="12" fill="rgba(255,255,255,0.8)">☑ Total impressions</text>
    <text x="313" y="176" font-size="28" font-weight="600" fill="white" class="val-impress">284K</text>
    <g class="trend-arrow">
      <text x="440" y="176" font-size="12" fill="rgba(255,255,255,0.9)">▲ 41%</text>
    </g>
  </g>

  <!-- CTR -->
  <g class="metric-card card-3">
    <rect x="550" y="118" width="240" height="76" rx="10" fill="white" stroke="#DADCE0" stroke-width="1"/>
    <text x="568" y="143" font-size="12" fill="#5F6368">☐ Average CTR</text>
    <text x="568" y="176" font-size="28" font-weight="600" fill="#3C4043" class="val-ctr">5.0%</text>
  </g>

  <!-- Position -->
  <g class="metric-card card-4">
    <rect x="805" y="118" width="240" height="76" rx="10" fill="white" stroke="#DADCE0" stroke-width="1"/>
    <text x="823" y="143" font-size="12" fill="#5F6368">☐ Average position</text>
    <text x="823" y="176" font-size="28" font-weight="600" fill="#3C4043" class="val-pos">18.4</text>
  </g>

  <!-- ═══ CHART AREA ═══ -->
  <rect x="40" y="212" width="1010" height="250" rx="10" fill="white" filter="url(#shadow)"/>

  <!-- Y-axis clicks -->
  <text x="52" y="232" font-size="10" font-weight="500" fill="#4285F4">Clicks</text>
  <text x="55" y="258" font-size="9" fill="#9AA0A6">800</text>
  <text x="55" y="298" font-size="9" fill="#9AA0A6">600</text>
  <text x="55" y="338" font-size="9" fill="#9AA0A6">400</text>
  <text x="55" y="378" font-size="9" fill="#9AA0A6">200</text>
  <text x="64" y="430" font-size="9" fill="#9AA0A6">0</text>

  <!-- Y-axis impressions -->
  <text x="978" y="232" font-size="10" font-weight="500" fill="#5C3FBF">Impressions</text>
  <text x="1008" y="258" font-size="9" fill="#9AA0A6">16K</text>
  <text x="1008" y="298" font-size="9" fill="#9AA0A6">12K</text>
  <text x="1012" y="338" font-size="9" fill="#9AA0A6">8K</text>
  <text x="1012" y="378" font-size="9" fill="#9AA0A6">4K</text>
  <text x="1020" y="430" font-size="9" fill="#9AA0A6">0</text>

  <!-- Grid lines -->
  <g stroke="#F1F3F4" stroke-width="0.6">
    <line x1="85" y1="255" x2="998" y2="255"/>
    <line x1="85" y1="295" x2="998" y2="295"/>
    <line x1="85" y1="335" x2="998" y2="335"/>
    <line x1="85" y1="375" x2="998" y2="375"/>
    <line x1="85" y1="425" x2="998" y2="425"/>
  </g>

  <!-- X-axis dates -->
  <text x="100" y="450" font-size="9" fill="#9AA0A6">Feb 20</text>
  <text x="170" y="450" font-size="9" fill="#9AA0A6">Feb 22</text>
  <text x="240" y="450" font-size="9" fill="#9AA0A6">Feb 24</text>
  <text x="310" y="450" font-size="9" fill="#9AA0A6">Feb 26</text>
  <text x="380" y="450" font-size="9" fill="#9AA0A6">Feb 28</text>
  <text x="450" y="450" font-size="9" fill="#9AA0A6">Mar 2</text>
  <text x="520" y="450" font-size="9" fill="#9AA0A6">Mar 4</text>
  <text x="590" y="450" font-size="9" fill="#9AA0A6">Mar 6</text>
  <text x="660" y="450" font-size="9" fill="#9AA0A6">Mar 8</text>
  <text x="730" y="450" font-size="9" fill="#9AA0A6">Mar 10</text>
  <text x="800" y="450" font-size="9" fill="#9AA0A6">Mar 12</text>
  <text x="870" y="450" font-size="9" fill="#9AA0A6">Mar 16</text>
  <text x="940" y="450" font-size="9" fill="#9AA0A6">Mar 20</text>

  <!-- ═══ CHART LINES (animated draw-in) ═══ -->
  <!-- Impressions area fill -->
  <path class="area-impress" d="M110,405 L145,400 L180,396 L215,390 L250,384 L285,378 L320,370 L355,362 L390,352 L425,342 L460,335 L495,322 L530,310 L565,300 L600,292 L635,280 L670,272 L705,265 L740,260 L775,256 L810,254 L845,258 L880,252 L915,248 L950,245 L950,425 L110,425 Z" fill="url(#impressGrad)" clip-path="url(#chartClip)"/>

  <!-- Impressions line -->
  <path class="line-impress" d="M110,405 L145,400 L180,396 L215,390 L250,384 L285,378 L320,370 L355,362 L390,352 L425,342 L460,335 L495,322 L530,310 L565,300 L600,292 L635,280 L670,272 L705,265 L740,260 L775,256 L810,254 L845,258 L880,252 L915,248 L950,245" fill="none" stroke="#5C3FBF" stroke-width="2.5" stroke-linejoin="round" stroke-linecap="round"/>

  <!-- Clicks area fill -->
  <path class="area-clicks" d="M110,420 L145,418 L180,415 L215,412 L250,408 L285,404 L320,398 L355,390 L390,382 L425,374 L460,368 L495,358 L530,350 L565,342 L600,336 L635,326 L670,320 L705,314 L740,310 L775,304 L810,300 L845,303 L880,296 L915,292 L950,288 L950,425 L110,425 Z" fill="url(#clicksGrad)" clip-path="url(#chartClip)"/>

  <!-- Clicks line -->
  <path class="line-clicks" d="M110,420 L145,418 L180,415 L215,412 L250,408 L285,404 L320,398 L355,390 L390,382 L425,374 L460,368 L495,358 L530,350 L565,342 L600,336 L635,326 L670,320 L705,314 L740,310 L775,304 L810,300 L845,303 L880,296 L915,292 L950,288" fill="none" stroke="#4285F4" stroke-width="2.5" stroke-linejoin="round" stroke-linecap="round"/>

  <!-- ═══ INTERACTIVE DATA POINTS (hover to see values) ═══ -->
  <!-- Each column is a hover zone with vertical line + tooltip -->

  <!-- Point: Feb 22 -->
  <g class="hover-col">
    <rect x="135" y="225" width="40" height="200" fill="transparent"/>
    <line class="vline" x1="145" y1="225" x2="145" y2="425" stroke="#DADCE0" stroke-width="1" stroke-dasharray="3,3"/>
    <circle class="data-dot dd1" cx="145" cy="400" r="4" fill="#5C3FBF"/>
    <circle class="data-dot dd1" cx="145" cy="418" r="4" fill="#4285F4"/>
    <g class="tooltip-group">
      <rect x="105" y="380" width="80" height="38" rx="4" fill="#3C4043"/>
      <text x="115" y="396" font-size="9" fill="#93B9E0">Clicks: 120</text>
      <text x="115" y="410" font-size="9" fill="#C4A8FF">Impr: 2.1K</text>
    </g>
  </g>

  <!-- Point: Feb 26 -->
  <g class="hover-col">
    <rect x="205" y="225" width="40" height="200" fill="transparent"/>
    <line class="vline" x1="215" y1="225" x2="215" y2="425" stroke="#DADCE0" stroke-width="1" stroke-dasharray="3,3"/>
    <circle class="data-dot dd2" cx="215" cy="390" r="4" fill="#5C3FBF"/>
    <circle class="data-dot dd2" cx="215" cy="412" r="4" fill="#4285F4"/>
    <g class="tooltip-group">
      <rect x="175" y="370" width="80" height="38" rx="4" fill="#3C4043"/>
      <text x="185" y="386" font-size="9" fill="#93B9E0">Clicks: 190</text>
      <text x="185" y="400" font-size="9" fill="#C4A8FF">Impr: 3.2K</text>
    </g>
  </g>

  <!-- Point: Mar 1 -->
  <g class="hover-col">
    <rect x="310" y="225" width="40" height="200" fill="transparent"/>
    <line class="vline" x1="320" y1="225" x2="320" y2="425" stroke="#DADCE0" stroke-width="1" stroke-dasharray="3,3"/>
    <circle class="data-dot dd4" cx="320" cy="370" r="4" fill="#5C3FBF"/>
    <circle class="data-dot dd4" cx="320" cy="398" r="4" fill="#4285F4"/>
    <g class="tooltip-group">
      <rect x="280" y="348" width="80" height="38" rx="4" fill="#3C4043"/>
      <text x="290" y="364" font-size="9" fill="#93B9E0">Clicks: 310</text>
      <text x="290" y="378" font-size="9" fill="#C4A8FF">Impr: 5.4K</text>
    </g>
  </g>

  <!-- Point: Mar 4 -->
  <g class="hover-col">
    <rect x="415" y="225" width="40" height="200" fill="transparent"/>
    <line class="vline" x1="425" y1="225" x2="425" y2="425" stroke="#DADCE0" stroke-width="1" stroke-dasharray="3,3"/>
    <circle class="data-dot dd5" cx="425" cy="342" r="4" fill="#5C3FBF"/>
    <circle class="data-dot dd5" cx="425" cy="374" r="4" fill="#4285F4"/>
    <g class="tooltip-group">
      <rect x="385" y="320" width="80" height="38" rx="4" fill="#3C4043"/>
      <text x="395" y="336" font-size="9" fill="#93B9E0">Clicks: 420</text>
      <text x="395" y="350" font-size="9" fill="#C4A8FF">Impr: 7.8K</text>
    </g>
  </g>

  <!-- Point: Mar 6 -->
  <g class="hover-col">
    <rect x="520" y="225" width="40" height="200" fill="transparent"/>
    <line class="vline" x1="530" y1="225" x2="530" y2="425" stroke="#DADCE0" stroke-width="1" stroke-dasharray="3,3"/>
    <circle class="data-dot dd7" cx="530" cy="310" r="4" fill="#5C3FBF"/>
    <circle class="data-dot dd7" cx="530" cy="350" r="4" fill="#4285F4"/>
    <g class="tooltip-group">
      <rect x="490" y="288" width="80" height="38" rx="4" fill="#3C4043"/>
      <text x="500" y="304" font-size="9" fill="#93B9E0">Clicks: 540</text>
      <text x="500" y="318" font-size="9" fill="#C4A8FF">Impr: 10.2K</text>
    </g>
  </g>

  <!-- Point: Mar 8 -->
  <g class="hover-col">
    <rect x="625" y="225" width="40" height="200" fill="transparent"/>
    <line class="vline" x1="635" y1="225" x2="635" y2="425" stroke="#DADCE0" stroke-width="1" stroke-dasharray="3,3"/>
    <circle class="data-dot dd9" cx="635" cy="280" r="4" fill="#5C3FBF"/>
    <circle class="data-dot dd9" cx="635" cy="326" r="4" fill="#4285F4"/>
    <g class="tooltip-group">
      <rect x="595" y="258" width="80" height="38" rx="4" fill="#3C4043"/>
      <text x="605" y="274" font-size="9" fill="#93B9E0">Clicks: 640</text>
      <text x="605" y="288" font-size="9" fill="#C4A8FF">Impr: 12.8K</text>
    </g>
  </g>

  <!-- Point: Mar 12 -->
  <g class="hover-col">
    <rect x="730" y="225" width="40" height="200" fill="transparent"/>
    <line class="vline" x1="740" y1="225" x2="740" y2="425" stroke="#DADCE0" stroke-width="1" stroke-dasharray="3,3"/>
    <circle class="data-dot dd10" cx="740" cy="260" r="4" fill="#5C3FBF"/>
    <circle class="data-dot dd10" cx="740" cy="310" r="4" fill="#4285F4"/>
    <g class="tooltip-group">
      <rect x="700" y="238" width="80" height="38" rx="4" fill="#3C4043"/>
      <text x="710" y="254" font-size="9" fill="#93B9E0">Clicks: 700</text>
      <text x="710" y="268" font-size="9" fill="#C4A8FF">Impr: 14.5K</text>
    </g>
  </g>

  <!-- Point: Mar 16 (small dip) -->
  <g class="hover-col">
    <rect x="835" y="225" width="40" height="200" fill="transparent"/>
    <line class="vline" x1="845" y1="225" x2="845" y2="425" stroke="#DADCE0" stroke-width="1" stroke-dasharray="3,3"/>
    <circle class="data-dot dd11" cx="845" cy="258" r="4" fill="#5C3FBF"/>
    <circle class="data-dot dd11" cx="845" cy="303" r="4" fill="#4285F4"/>
    <g class="tooltip-group">
      <rect x="805" y="236" width="80" height="38" rx="4" fill="#3C4043"/>
      <text x="815" y="252" font-size="9" fill="#93B9E0">Clicks: 680</text>
      <text x="815" y="266" font-size="9" fill="#C4A8FF">Impr: 14.1K</text>
    </g>
  </g>

  <!-- Point: Mar 20 (latest - pulsing) -->
  <g class="hover-col">
    <rect x="935" y="225" width="40" height="200" fill="transparent"/>
    <line class="vline" x1="950" y1="225" x2="950" y2="425" stroke="#DADCE0" stroke-width="1" stroke-dasharray="3,3"/>
    <circle cx="950" cy="245" r="4" fill="#5C3FBF" class="pulse-dot"/>
    <circle cx="950" cy="288" r="4" fill="#4285F4" class="pulse-dot"/>
    <circle cx="950" cy="245" r="8" fill="#5C3FBF" opacity="0.15" class="pulse-dot"/>
    <circle cx="950" cy="288" r="8" fill="#4285F4" opacity="0.15" class="pulse-dot"/>
    <g class="tooltip-group">
      <rect x="870" y="260" width="80" height="38" rx="4" fill="#3C4043"/>
      <text x="880" y="276" font-size="9" fill="#93B9E0">Clicks: 780</text>
      <text x="880" y="290" font-size="9" fill="#C4A8FF">Impr: 15.8K</text>
    </g>
  </g>

  <!-- ═══ ANNOTATION CALLOUT (pops in late) ═══ -->
  <g class="callout">
    <rect x="560" y="232" width="200" height="52" rx="8" fill="#FEF7E0" stroke="#FBBC04" stroke-width="1.2"/>
    <text x="580" y="252" font-size="11" font-weight="600" fill="#3C4043">📈 Steady growth after</text>
    <text x="580" y="270" font-size="11" font-weight="500" fill="#5F6368">AI-native SEO applied</text>
    <line x1="660" y1="284" x2="660" y2="300" stroke="#FBBC04" stroke-width="1.2" stroke-dasharray="3,2"/>
    <circle cx="660" cy="304" r="3" fill="#FBBC04"/>
  </g>

  <!-- ═══ BOTTOM TABLE TABS ═══ -->
  <rect x="40" y="472" width="1010" height="50" rx="10" fill="white" filter="url(#shadow)"/>

  <g class="tab-item">
    <rect x="55" y="480" width="80" height="32" rx="4" fill="transparent"/>
    <text x="72" y="500" font-size="12" font-weight="600" fill="#1A73E8">QUERIES</text>
    <line x1="60" y1="510" x2="125" y2="510" stroke="#1A73E8" stroke-width="2.5"/>
  </g>
  <g class="tab-item">
    <rect x="145" y="480" width="70" height="32" rx="4" fill="transparent"/>
    <text x="157" y="500" font-size="12" fill="#5F6368">PAGES</text>
  </g>
  <g class="tab-item">
    <rect x="225" y="480" width="100" height="32" rx="4" fill="transparent"/>
    <text x="237" y="500" font-size="12" fill="#5F6368">COUNTRIES</text>
  </g>
  <g class="tab-item">
    <rect x="335" y="480" width="80" height="32" rx="4" fill="transparent"/>
    <text x="347" y="500" font-size="12" fill="#5F6368">DEVICES</text>
  </g>
  <g class="tab-item">
    <rect x="425" y="480" width="140" height="32" rx="4" fill="transparent"/>
    <text x="437" y="500" font-size="12" fill="#5F6368">SEARCH APPEARANCE</text>
  </g>
</svg>