<svg viewBox="0 0 2100 900" xmlns="http://www.w3.org/2000/svg" preserveAspectRatio="xMidYMid slice">
  <defs>
    <!-- Sky: night left → twilight → sunset gold right -->
    <linearGradient id="sky" x1="0" y1="0" x2="1" y2="0">
      <stop offset="0%" stop-color="#0a1828"/>
      <stop offset="22%" stop-color="#152848"/>
      <stop offset="42%" stop-color="#3a3656"/>
      <stop offset="58%" stop-color="#6a4458"/>
      <stop offset="76%" stop-color="#c0784a"/>
      <stop offset="92%" stop-color="#e8a960"/>
      <stop offset="100%" stop-color="#f4c47a"/>
    </linearGradient>
    <!-- Vertical vignette for depth -->
    <linearGradient id="vignette" x1="0" y1="0" x2="0" y2="1">
      <stop offset="0%" stop-color="#000" stop-opacity="0.42"/>
      <stop offset="40%" stop-color="#000" stop-opacity="0"/>
      <stop offset="100%" stop-color="#000" stop-opacity="0.45"/>
    </linearGradient>
    <!-- Sun -->
    <radialGradient id="sunGlow" cx="0.5" cy="0.5" r="0.5">
      <stop offset="0%" stop-color="#fff7d6" stop-opacity="1"/>
      <stop offset="18%" stop-color="#ffe19a" stop-opacity="0.9"/>
      <stop offset="50%" stop-color="#e8a960" stop-opacity="0.42"/>
      <stop offset="100%" stop-color="#e8a960" stop-opacity="0"/>
    </radialGradient>
    <!-- Moon glow -->
    <radialGradient id="moonGlow" cx="0.5" cy="0.5" r="0.5">
      <stop offset="0%" stop-color="#eef3f9" stop-opacity="0.45"/>
      <stop offset="100%" stop-color="#eef3f9" stop-opacity="0"/>
    </radialGradient>
    <!-- Water -->
    <linearGradient id="water" x1="0" y1="0" x2="0" y2="1">
      <stop offset="0%" stop-color="#0e1a2c" stop-opacity="0.92"/>
      <stop offset="100%" stop-color="#03070d" stop-opacity="1"/>
    </linearGradient>
    <!-- Warm reflection from sunset -->
    <linearGradient id="reflectWarm" x1="0" y1="0" x2="0" y2="1">
      <stop offset="0%" stop-color="#e8a960" stop-opacity="0.45"/>
      <stop offset="100%" stop-color="#e8a960" stop-opacity="0"/>
    </linearGradient>
  </defs>

  <!-- ════════ SKY ════════ -->
  <rect width="2100" height="900" fill="url(#sky)"/>
  <rect width="2100" height="900" fill="url(#vignette)"/>

  <!-- Sun (right) -->
  <circle cx="1700" cy="430" r="420" fill="url(#sunGlow)"/>
  <circle cx="1700" cy="430" r="78" fill="#fff5cc" opacity="0.96"/>

  <!-- Moon (left) -->
  <circle cx="380" cy="195" r="68" fill="url(#moonGlow)"/>
  <circle cx="380" cy="195" r="32" fill="#e8eef4" opacity="0.92"/>
  <circle cx="372" cy="188" r="6" fill="#c8d6e5" opacity="0.5"/>
  <circle cx="388" cy="202" r="4" fill="#c8d6e5" opacity="0.4"/>

  <!-- Stars (clustered on the night side) -->
  <g fill="#eef3f9">
    <circle cx="80" cy="80" r="1.4" opacity="0.9"/>
    <circle cx="170" cy="140" r="1" opacity="0.7"/>
    <circle cx="220" cy="50" r="1.2" opacity="0.8"/>
    <circle cx="60" cy="220" r="1.1" opacity="0.85"/>
    <circle cx="280" cy="220" r="0.9" opacity="0.6"/>
    <circle cx="340" cy="90" r="0.8" opacity="0.6"/>
    <circle cx="120" cy="320" r="1.3" opacity="0.8"/>
    <circle cx="200" cy="380" r="0.8" opacity="0.5"/>
    <circle cx="450" cy="60" r="0.9" opacity="0.6"/>
    <circle cx="520" cy="180" r="0.7" opacity="0.5"/>
    <circle cx="610" cy="120" r="0.8" opacity="0.55"/>
    <circle cx="700" cy="220" r="0.6" opacity="0.4"/>
    <circle cx="780" cy="80" r="0.6" opacity="0.4"/>
    <circle cx="860" cy="180" r="0.5" opacity="0.35"/>
  </g>

  <!-- ════════ DISTANT HAZE ════════ -->
  <path d="M 0,615 Q 200,580 400,605 T 800,590 T 1200,605 T 1600,580 T 2100,610 L 2100,900 L 0,900 Z"
        fill="#1a2332" opacity="0.42"/>
  <path d="M 0,645 Q 240,620 480,640 T 960,628 T 1440,640 T 1920,622 L 2100,640 L 2100,900 L 0,900 Z"
        fill="#0e1828" opacity="0.55"/>

  <!-- ════════ LEFT — SF / BAY AREA ════════ -->

  <!-- SF skyline (behind bridge anchor) -->
  <g fill="#070d18">
    <rect x="0"   y="540" width="55" height="160"/>
    <rect x="55"  y="510" width="38" height="190"/>
    <rect x="93"  y="525" width="42" height="175"/>
    <rect x="135" y="490" width="48" height="210"/>
    <rect x="183" y="510" width="32" height="190"/>
    <rect x="215" y="525" width="40" height="175"/>
    <rect x="255" y="498" width="46" height="202"/>
    <rect x="301" y="528" width="34" height="172"/>
    <rect x="335" y="540" width="30" height="160"/>
    <polygon points="135,490 159,470 183,490"/>
    <polygon points="255,498 278,478 301,498"/>
  </g>

  <!-- Lit windows (warm + cool) -->
  <g fill="#f4d97d" opacity="0.9">
    <rect x="10"  y="560" width="3" height="4"/>
    <rect x="22"  y="585" width="3" height="4"/>
    <rect x="34"  y="610" width="3" height="4"/>
    <rect x="46"  y="640" width="3" height="4"/>
    <rect x="68"  y="540" width="3" height="4"/>
    <rect x="80"  y="565" width="3" height="4"/>
    <rect x="80"  y="600" width="3" height="4"/>
    <rect x="100" y="555" width="3" height="4"/>
    <rect x="112" y="580" width="3" height="4"/>
    <rect x="124" y="620" width="3" height="4"/>
    <rect x="145" y="520" width="3" height="4"/>
    <rect x="160" y="555" width="3" height="4"/>
    <rect x="172" y="590" width="3" height="4"/>
    <rect x="192" y="545" width="3" height="4"/>
    <rect x="225" y="555" width="3" height="4"/>
    <rect x="240" y="595" width="3" height="4"/>
    <rect x="268" y="530" width="3" height="4"/>
    <rect x="285" y="568" width="3" height="4"/>
    <rect x="310" y="555" width="3" height="4"/>
    <rect x="325" y="595" width="3" height="4"/>
    <rect x="345" y="570" width="3" height="4"/>
  </g>
  <g fill="#a8c8e8" opacity="0.7">
    <rect x="16"  y="600" width="2" height="3"/>
    <rect x="58"  y="580" width="2" height="3"/>
    <rect x="105" y="600" width="2" height="3"/>
    <rect x="148" y="565" width="2" height="3"/>
    <rect x="200" y="580" width="2" height="3"/>
    <rect x="260" y="565" width="2" height="3"/>
    <rect x="318" y="580" width="2" height="3"/>
  </g>

  <!-- Golden Gate Bridge -->
  <g>
    <!-- Tower 1 (art deco vertical) -->
    <g fill="#b0432e">
      <rect x="440" y="330" width="22" height="335"/>
      <rect x="432" y="380" width="38" height="9"/>
      <rect x="432" y="450" width="38" height="9"/>
      <rect x="432" y="520" width="38" height="9"/>
      <rect x="432" y="590" width="38" height="9"/>
      <polygon points="440,330 462,330 460,318 442,318"/>
      <polygon points="442,318 460,318 458,308 444,308"/>
      <rect x="450" y="296" width="2" height="14"/>
    </g>
    <!-- Tower 2 -->
    <g fill="#b0432e">
      <rect x="650" y="330" width="22" height="335"/>
      <rect x="642" y="380" width="38" height="9"/>
      <rect x="642" y="450" width="38" height="9"/>
      <rect x="642" y="520" width="38" height="9"/>
      <rect x="642" y="590" width="38" height="9"/>
      <polygon points="650,330 672,330 670,318 652,318"/>
      <polygon points="652,318 670,318 668,308 654,308"/>
      <rect x="660" y="296" width="2" height="14"/>
    </g>

    <!-- Main suspension cables (catenary curves) -->
    <g stroke="#b0432e" stroke-width="3" fill="none" stroke-linecap="round">
      <path d="M 200,645 Q 320,505 451,325"/>
      <path d="M 451,325 Q 560,510 661,325"/>
      <path d="M 661,325 Q 700,490 725,645"/>
    </g>

    <!-- Vertical suspender cables (thin) -->
    <g stroke="#b0432e" stroke-width="1" opacity="0.85">
      <line x1="230" y1="624" x2="230" y2="650"/>
      <line x1="260" y1="595" x2="260" y2="650"/>
      <line x1="290" y1="560" x2="290" y2="650"/>
      <line x1="320" y1="518" x2="320" y2="650"/>
      <line x1="350" y1="470" x2="350" y2="650"/>
      <line x1="380" y1="420" x2="380" y2="650"/>
      <line x1="410" y1="370" x2="410" y2="650"/>
      <line x1="480" y1="360" x2="480" y2="650"/>
      <line x1="510" y1="395" x2="510" y2="650"/>
      <line x1="540" y1="430" x2="540" y2="650"/>
      <line x1="570" y1="445" x2="570" y2="650"/>
      <line x1="600" y1="430" x2="600" y2="650"/>
      <line x1="630" y1="395" x2="630" y2="650"/>
      <line x1="690" y1="395" x2="690" y2="650"/>
      <line x1="710" y1="500" x2="710" y2="650"/>
    </g>

    <!-- Bridge deck -->
    <rect x="195" y="648" width="540" height="10" fill="#7e2e22"/>
    <rect x="195" y="658" width="540" height="6" fill="#5a1f17"/>
    <!-- Approach roads -->
    <polygon points="0,670 195,658 195,664 0,684" fill="#5a1f17"/>
    <polygon points="735,658 880,684 880,690 735,664" fill="#5a1f17"/>
  </g>

  <!-- ════════ MIDDLE — CLOUDS / TRANSITION ════════ -->
  <ellipse cx="950"  cy="340" rx="200" ry="22" fill="#5a4458" opacity="0.42"/>
  <ellipse cx="1180" cy="285" rx="180" ry="20" fill="#7a5448" opacity="0.4"/>
  <ellipse cx="1380" cy="380" rx="160" ry="18" fill="#8a6048" opacity="0.45"/>
  <ellipse cx="1050" cy="430" rx="140" ry="14" fill="#6a4858" opacity="0.3"/>

  <!-- Birds near sun -->
  <g fill="#0a1019" opacity="0.75">
    <path d="M 1430,360 Q 1438,352 1448,358 Q 1458,352 1466,360 Q 1448,355 1430,360 Z"/>
    <path d="M 1480,335 Q 1486,329 1494,333 Q 1502,329 1508,335 Q 1494,331 1480,335 Z"/>
    <path d="M 1500,395 Q 1505,390 1512,393 Q 1519,390 1524,395 Q 1512,391 1500,395 Z"/>
    <path d="M 1540,355 Q 1545,350 1552,353 Q 1559,350 1564,355 Q 1552,351 1540,355 Z"/>
  </g>

  <!-- ════════ RIGHT — INDIA: TEMPLE + PALMS + SKYLINE ════════ -->

  <!-- Modern skyline behind temple -->
  <g fill="#08121f">
    <rect x="1300" y="510" width="40" height="160"/>
    <rect x="1340" y="490" width="35" height="180"/>
    <rect x="1375" y="525" width="44" height="145"/>
    <rect x="1419" y="500" width="32" height="170"/>
    <rect x="1451" y="540" width="38" height="130"/>
    <rect x="1489" y="520" width="30" height="150"/>
    <rect x="1519" y="535" width="36" height="135"/>
    <polygon points="1340,490 1357,470 1375,490"/>
    <!-- Right far buildings -->
    <rect x="1890" y="520" width="40" height="150"/>
    <rect x="1930" y="540" width="32" height="130"/>
    <rect x="1962" y="510" width="44" height="160"/>
    <rect x="2006" y="528" width="34" height="142"/>
    <rect x="2040" y="495" width="48" height="175"/>
    <polygon points="2040,495 2064,475 2088,495"/>
  </g>

  <!-- Lit windows on Indian skyline -->
  <g fill="#f4d97d" opacity="0.9">
    <rect x="1310" y="540" width="3" height="3"/>
    <rect x="1320" y="568" width="3" height="3"/>
    <rect x="1310" y="600" width="3" height="3"/>
    <rect x="1326" y="630" width="3" height="3"/>
    <rect x="1348" y="520" width="3" height="3"/>
    <rect x="1358" y="555" width="3" height="3"/>
    <rect x="1348" y="595" width="3" height="3"/>
    <rect x="1360" y="630" width="3" height="3"/>
    <rect x="1384" y="555" width="3" height="3"/>
    <rect x="1395" y="595" width="3" height="3"/>
    <rect x="1408" y="635" width="3" height="3"/>
    <rect x="1428" y="525" width="3" height="3"/>
    <rect x="1438" y="555" width="3" height="3"/>
    <rect x="1430" y="608" width="3" height="3"/>
    <rect x="1458" y="565" width="3" height="3"/>
    <rect x="1470" y="605" width="3" height="3"/>
    <rect x="1496" y="545" width="3" height="3"/>
    <rect x="1508" y="595" width="3" height="3"/>
    <rect x="1525" y="565" width="3" height="3"/>
    <rect x="1538" y="605" width="3" height="3"/>
    <rect x="1900" y="555" width="3" height="3"/>
    <rect x="1912" y="595" width="3" height="3"/>
    <rect x="1900" y="630" width="3" height="3"/>
    <rect x="1938" y="568" width="3" height="3"/>
    <rect x="1950" y="608" width="3" height="3"/>
    <rect x="1972" y="540" width="3" height="3"/>
    <rect x="1985" y="580" width="3" height="3"/>
    <rect x="1996" y="620" width="3" height="3"/>
    <rect x="2014" y="560" width="3" height="3"/>
    <rect x="2025" y="600" width="3" height="3"/>
    <rect x="2050" y="525" width="3" height="3"/>
    <rect x="2062" y="565" width="3" height="3"/>
    <rect x="2076" y="610" width="3" height="3"/>
  </g>

  <!-- Temple gopuram (stepped pyramid, South Indian style) -->
  <g fill="#08121f">
    <!-- Base (largest) -->
    <rect x="1590" y="610" width="220" height="60"/>
    <!-- Tier 2 -->
    <rect x="1605" y="555" width="190" height="55"/>
    <!-- Tier 3 -->
    <rect x="1620" y="505" width="160" height="50"/>
    <!-- Tier 4 -->
    <rect x="1635" y="462" width="130" height="43"/>
    <!-- Tier 5 -->
    <rect x="1650" y="425" width="100" height="37"/>
    <!-- Tier 6 -->
    <rect x="1665" y="395" width="70" height="30"/>
    <!-- Tier 7 -->
    <rect x="1680" y="370" width="40" height="25"/>
    <!-- Kalasha (pinnacle) -->
    <rect x="1693" y="350" width="14" height="20"/>
    <ellipse cx="1700" cy="346" rx="8" ry="6"/>
    <polygon points="1696,332 1704,332 1700,316"/>
    <line x1="1700" y1="316" x2="1700" y2="308" stroke="#08121f" stroke-width="2"/>
    <circle cx="1700" cy="306" r="2"/>
    <!-- Corner ornaments on each tier -->
    <circle cx="1600" cy="612" r="4"/>
    <circle cx="1800" cy="612" r="4"/>
    <circle cx="1615" cy="557" r="3.5"/>
    <circle cx="1785" cy="557" r="3.5"/>
    <circle cx="1630" cy="507" r="3"/>
    <circle cx="1770" cy="507" r="3"/>
    <circle cx="1645" cy="464" r="2.8"/>
    <circle cx="1755" cy="464" r="2.8"/>
    <circle cx="1660" cy="427" r="2.5"/>
    <circle cx="1740" cy="427" r="2.5"/>
    <circle cx="1675" cy="397" r="2"/>
    <circle cx="1725" cy="397" r="2"/>
    <!-- Temple doorway -->
    <rect x="1685" y="630" width="30" height="40" fill="#f4d97d" opacity="0.65"/>
    <path d="M 1685,640 Q 1700,628 1715,640 L 1715,670 L 1685,670 Z" fill="#f4d97d" opacity="0.55"/>
  </g>

  <!-- Warm rim light on temple from sunset -->
  <g opacity="0.32">
    <path d="M 1590,610 L 1810,610 L 1795,617 L 1605,617 Z" fill="#e8a960"/>
    <path d="M 1605,555 L 1795,555 L 1782,562 L 1618,562 Z" fill="#e8a960"/>
    <path d="M 1620,505 L 1780,505 L 1768,512 L 1632,512 Z" fill="#e8a960"/>
    <path d="M 1635,462 L 1765,462 L 1754,469 L 1646,469 Z" fill="#e8a960"/>
    <path d="M 1650,425 L 1750,425 L 1740,432 L 1660,432 Z" fill="#e8a960"/>
    <path d="M 1665,395 L 1735,395 L 1727,402 L 1673,402 Z" fill="#e8a960"/>
  </g>

  <!-- Palm trees framing right side -->
  <g stroke="#08121f" stroke-width="6" fill="none" stroke-linecap="round">
    <!-- Palm A -->
    <path d="M 1862,705 Q 1858,580 1872,468"/>
    <!-- Palm B (larger, far right foreground) -->
    <path d="M 2005,720 Q 1998,560 2012,420"/>
  </g>
  <!-- Palm A fronds (denser, layered) -->
  <g stroke="#08121f" fill="none" stroke-linecap="round">
    <g stroke-width="4.5">
      <path d="M 1872,468 Q 1845,448 1810,432"/>
      <path d="M 1872,468 Q 1899,448 1934,432"/>
      <path d="M 1872,468 Q 1848,478 1812,488"/>
      <path d="M 1872,468 Q 1898,478 1934,488"/>
      <path d="M 1872,468 Q 1872,442 1878,412"/>
      <path d="M 1872,468 Q 1860,494 1850,520"/>
      <path d="M 1872,468 Q 1884,494 1894,520"/>
    </g>
    <g stroke-width="2.5">
      <path d="M 1872,468 Q 1855,455 1830,440"/>
      <path d="M 1872,468 Q 1889,455 1914,440"/>
      <path d="M 1872,468 Q 1858,472 1824,470"/>
      <path d="M 1872,468 Q 1886,472 1920,470"/>
      <path d="M 1872,468 Q 1866,452 1866,422"/>
      <path d="M 1872,468 Q 1878,452 1880,422"/>
    </g>
  </g>
  <!-- Palm B fronds (more dramatic, larger) -->
  <g stroke="#08121f" fill="none" stroke-linecap="round">
    <g stroke-width="5">
      <path d="M 2012,420 Q 1975,396 1924,378"/>
      <path d="M 2012,420 Q 2049,396 2100,378"/>
      <path d="M 2012,420 Q 1975,438 1924,452"/>
      <path d="M 2012,420 Q 2049,438 2100,452"/>
      <path d="M 2012,420 Q 2012,392 2018,355"/>
      <path d="M 2012,420 Q 1998,452 1988,490"/>
      <path d="M 2012,420 Q 2026,452 2036,490"/>
    </g>
    <g stroke-width="3">
      <path d="M 2012,420 Q 1985,408 1940,396"/>
      <path d="M 2012,420 Q 2039,408 2084,396"/>
      <path d="M 2012,420 Q 1985,428 1938,432"/>
      <path d="M 2012,420 Q 2039,428 2086,432"/>
      <path d="M 2012,420 Q 2002,400 2004,370"/>
      <path d="M 2012,420 Q 2020,400 2020,370"/>
    </g>
  </g>
  <!-- Coconuts -->
  <circle cx="2010" cy="425" r="4" fill="#08121f"/>
  <circle cx="2015" cy="430" r="3.5" fill="#08121f"/>
  <circle cx="1872" cy="472" r="3" fill="#08121f"/>

  <!-- ════════ WATER / FOREGROUND ════════ -->
  <rect x="0" y="670" width="2100" height="230" fill="url(#water)"/>

  <!-- Warm sun reflection in water -->
  <ellipse cx="1700" cy="700" rx="320" ry="14" fill="url(#reflectWarm)"/>
  <g stroke="#e8a960" stroke-width="1.2" opacity="0.55" stroke-linecap="round">
    <line x1="1480" y1="720" x2="1920" y2="720"/>
    <line x1="1540" y1="740" x2="1860" y2="740"/>
    <line x1="1580" y1="760" x2="1820" y2="760"/>
    <line x1="1600" y1="785" x2="1800" y2="785"/>
    <line x1="1620" y1="815" x2="1780" y2="815"/>
    <line x1="1650" y1="850" x2="1750" y2="850"/>
  </g>
  <g stroke="#d4904a" stroke-width="0.8" opacity="0.4">
    <line x1="1440" y1="730" x2="1960" y2="730"/>
    <line x1="1500" y1="775" x2="1900" y2="775"/>
    <line x1="1560" y1="825" x2="1840" y2="825"/>
  </g>

  <!-- Cool moon reflection in water (left) -->
  <g stroke="#a8c8e8" stroke-width="0.8" opacity="0.4">
    <line x1="300" y1="730" x2="460" y2="730"/>
    <line x1="280" y1="755" x2="480" y2="755"/>
    <line x1="260" y1="790" x2="500" y2="790"/>
    <line x1="280" y1="830" x2="480" y2="830"/>
  </g>

  <!-- Bridge reflection -->
  <g fill="#b0432e" opacity="0.18">
    <rect x="440" y="670" width="22" height="40"/>
    <rect x="650" y="670" width="22" height="40"/>
    <rect x="195" y="670" width="540" height="3"/>
  </g>

  <!-- ════════ AIRPLANE ARC ════════ -->
  <!-- Dotted trail from Bay Area side rising and descending to India -->
  <path d="M 470,320 Q 1050,60 1660,320"
        fill="none" stroke="#eef3f9" stroke-width="2" stroke-dasharray="3 9" opacity="0.7"/>

  <!-- Airplane (heading right, slightly descending) - sized for thumbnail legibility -->
  <g transform="translate(1280,148) rotate(22)">
    <!-- Fuselage -->
    <ellipse cx="0" cy="0" rx="58" ry="5" fill="#fbfcfe"/>
    <!-- Nose -->
    <path d="M 52,-3 Q 66,0 52,3 Z" fill="#fbfcfe"/>
    <!-- Main wings -->
    <path d="M -10,-3 L 26,-30 L 40,-30 L 8,-3 Z" fill="#fbfcfe"/>
    <path d="M -10,3 L 26,30 L 40,30 L 8,3 Z" fill="#fbfcfe"/>
    <!-- Tail wings -->
    <path d="M -48,-3 L -42,-18 L -28,-18 L -38,-3 Z" fill="#fbfcfe"/>
    <path d="M -48,3 L -42,18 L -28,18 L -38,3 Z" fill="#fbfcfe"/>
    <!-- Vertical stabilizer -->
    <path d="M -52,0 L -56,-14 L -40,-14 L -42,0 Z" fill="#fbfcfe"/>
    <!-- Subtle window line -->
    <line x1="-20" y1="0" x2="30" y2="0" stroke="#a8c8e8" stroke-width="0.8"/>
  </g>
  <!-- Soft contrail behind the plane -->
  <path d="M 1230,160 Q 1180,168 1130,182" fill="none" stroke="#fbfcfe" stroke-width="2.5" stroke-linecap="round" opacity="0.45"/>
  <path d="M 1230,160 Q 1180,168 1130,182" fill="none" stroke="#fbfcfe" stroke-width="5" stroke-linecap="round" opacity="0.15"/>

  <!-- A subtle dotted return trail (faint) for poetic effect -->
  <path d="M 470,348 Q 1050,90 1660,348"
        fill="none" stroke="#eef3f9" stroke-width="0.6" stroke-dasharray="2 14" opacity="0.25"/>

  <!-- ════════ BOTTOM SOFT FADE ════════ -->
  <rect x="0" y="860" width="2100" height="40" fill="#000" opacity="0.25"/>
</svg>
